<svg width="830" height="830" viewBox="0 0 830 830" fill="none" xmlns="http://www.w3.org/2000/svg">
<rect width="830" height="830" fill="#E35B52"/>
<path d="M301.588 363.291C325.497 363.291 345.022 372.058 360.164 389.591C376.103 407.123 384.073 429.04 384.073 455.339C384.073 473.669 378.494 491.202 367.337 507.938C356.18 523.877 342.233 536.628 325.497 546.191C308.761 555.755 292.424 560.537 276.484 560.537C252.576 560.537 232.652 551.77 216.713 534.237C201.571 516.704 194 494.788 194 468.489C194 450.159 199.579 433.024 210.736 417.085C221.893 400.349 235.84 387.2 252.576 377.636C269.312 368.073 285.649 363.291 301.588 363.291Z" fill="#0B0B0B"/>
<path d="M406.788 651.389L361.361 615.526C402.006 566.912 431.095 524.674 448.628 488.811C466.16 453.745 476.521 414.296 479.709 370.464L386.465 315.474V278.416L590.883 178L636.31 359.705L406.788 651.389Z" fill="#0B0B0B"/>
</svg>
