<svg width="443" height="474" viewBox="0 0 443 474" fill="none" xmlns="http://www.w3.org/2000/svg">
<g clip-path="url(#clip0_36_2)">
<path d="M107.588 185.291C131.497 185.291 151.022 194.058 166.164 211.591C182.103 229.123 190.073 251.04 190.073 277.339C190.073 295.669 184.494 313.202 173.337 329.938C162.18 345.877 148.233 358.628 131.497 368.191C114.761 377.755 98.4235 382.537 82.4845 382.537C58.5759 382.537 38.6521 373.77 22.7131 356.237C7.57104 338.704 0 316.788 0 290.489C0 272.159 5.57866 255.024 16.736 239.085C27.8933 222.349 41.84 209.2 58.5759 199.636C75.3119 190.073 91.6494 185.291 107.588 185.291Z" fill="black"/>
<path d="M212.788 473.389L167.362 437.526C208.006 388.912 237.095 346.674 254.628 310.811C272.161 275.745 282.521 236.296 285.709 192.464L192.466 137.474V100.416L396.884 0L442.31 181.705L212.788 473.389Z" fill="black"/>
</g>
<defs>
<clipPath id="clip0_36_2">
<rect width="443" height="474" fill="white"/>
</clipPath>
</defs>
</svg>
